PathFileType	4	(X/Y/Z)	E:\3-PhD\Data\MocapData\ElaboratedData\009\pre\dynamicElaborations\Run_baseline2\Run_baseline2.trc
DataRate	CameraRate	NumFrames	NumMarkers	Units	OrigDataRate	DataStartFrame
200	200	5	54	mm	200	739
Frame#	Time	FHD			LBHD			RBHD			C7			T10			CLAV			LSHO			LUUPA			LMUPA			LDUPA			LLEP			LMEP			LRAD			LUL			LRFIN			RSHO			RUPA1			RMUPA			RDUPA			RLEP			RMEP			RRAD			RUL			RUFIN			RASI			USACR			LSACR			RSACR			LTHI1			LTHI2			LTHI3			LTHI4			LTIB1			LTIB2			LTIB3			LTIB4			LLMAL			LHEE			LMT1			LMT2			RTHI			RTHI2			RTHI3			RTHI4			RLFC			RTIB1			RTIB2			RTIB3			RTIB4			RLMAL			RHEE			RMT1			RMT2			RMT5		
		X1	Y1	Z1	X2	Y2	Z2	X3	Y3	Z3	X4	Y4	Z4	X5	Y5	Z5	X6	Y6	Z6	X7	Y7	Z7	X8	Y8	Z8	X9	Y9	Z9	X10	Y10	Z10	X11	Y11	Z11	X12	Y12	Z12	X13	Y13	Z13	X14	Y14	Z14	X15	Y15	Z15	X16	Y16	Z16	X17	Y17	Z17	X18	Y18	Z18	X19	Y19	Z19	X20	Y20	Z20	X21	Y21	Z21	X22	Y22	Z22	X23	Y23	Z23	X24	Y24	Z24	X25	Y25	Z25	X26	Y26	Z26	X27	Y27	Z27	X28	Y28	Z28	X29	Y29	Z29	X30	Y30	Z30	X31	Y31	Z31	X32	Y32	Z32	X33	Y33	Z33	X34	Y34	Z34	X35	Y35	Z35	X36	Y36	Z36	X37	Y37	Z37	X38	Y38	Z38	X39	Y39	Z39	X40	Y40	Z40	X41	Y41	Z41	X42	Y42	Z42	X43	Y43	Z43	X44	Y44	Z44	X45	Y45	Z45	X46	Y46	Z46	X47	Y47	Z47	X48	Y48	Z48	X49	Y49	Z49	X50	Y50	Z50	X51	Y51	Z51	X52	Y52	Z52	X53	Y53	Z53	X54	Y54	Z54	

753	3.760000	-357.814861	1412.503516	110.473370	-557.803698	1396.035958	110.800653	-469.018590	1395.135830	200.367703	-589.803472	1291.033247	126.038961	-834.573312	1037.477912	111.200315	-522.155209	1141.617619	122.971247	-516.808794	1180.084068	-20.538711	-658.383911	1069.387376	-128.257153	-664.547895	1029.422359	-100.853098	-710.434923	1023.744005	-139.594479	-815.877169	969.520918	-160.831632	-856.514944	1002.102059	-106.425612	-923.385213	743.425122	-68.143515	-972.506828	757.394838	-121.669290	-941.123313	665.717085	-77.524871	-535.813618	1201.647091	294.587307	-606.411897	1091.403403	414.968541	-582.438929	1050.930601	416.547596	-626.463002	1041.732815	458.934685	-651.247989	919.954695	518.429261	-696.327517	891.984459	470.590326	-448.298742	794.596835	414.812963	-463.701800	750.886633	467.994546	-374.064766	781.873482	438.774801	-698.078803	865.506462	244.492618	-883.824219	938.052824	130.467860	-894.602270	900.020146	113.575590	-887.684173	916.795327	169.427161	-684.099102	612.415664	-41.022503	-605.092963	589.793147	-65.294124	-576.626215	629.137601	-67.799622	-575.330908	537.389770	-53.925384	-481.438174	362.051931	63.618424	-568.362296	358.520331	55.863842	-532.939882	340.609782	73.824441	-559.292646	304.754680	147.022310	-683.423585	249.626237	229.633543	-742.515666	281.046310	309.821523	-558.181993	157.545660	280.823756	-576.677981	149.013705	237.565679	-671.797822	679.921947	390.602033	-618.536107	643.588582	400.007525	-587.863937	649.837115	387.685956	-619.746268	558.063769	413.942195	-565.156469	465.334263	431.487668	-595.483585	252.341097	473.642362	-680.553624	227.568803	538.785334	-644.166661	202.947929	523.464608	-662.105365	149.370374	510.368729	-745.003171	103.033480	580.447980	-825.040370	51.366598	559.281187	-600.601114	57.246194	520.810813	-598.120055	57.761291	561.907531	-633.015635	36.132642	621.179174	
754	3.765000	-335.553390	1411.224003	99.640579	-535.625031	1394.163307	103.474398	-445.133539	1393.818283	191.511262	-566.922324	1289.252677	119.523811	-811.785144	1035.631131	106.088928	-499.266386	1138.792739	115.198113	-496.267989	1178.039147	-28.519149	-640.387735	1068.856612	-134.005461	-646.273129	1028.843378	-106.487559	-692.942273	1023.592823	-144.372081	-799.451898	969.963497	-163.545810	-838.615031	1002.106397	-107.877138	-904.201242	743.489131	-68.943903	-954.594778	757.620168	-121.227680	-922.180958	665.863052	-78.368566	-509.709840	1199.291719	287.019419	-577.441009	1085.534996	405.799421	-552.521355	1045.581272	406.479289	-596.375579	1034.503598	448.884914	-616.380051	909.672174	504.959416	-661.641653	882.223860	456.826049	-412.209727	795.119915	392.460401	-424.504856	749.001797	444.219260	-336.934165	784.410522	414.030651	-676.950683	864.848058	241.821731	-861.248684	936.267888	125.220959	-871.960283	898.272202	108.199975	-865.414716	914.987885	164.016891	-662.766818	612.585227	-46.391739	-583.725283	591.818000	-72.189473	-556.169184	631.791632	-75.101368	-552.565459	540.087022	-61.454757	-449.793976	364.930999	54.349667	-536.730750	358.292118	49.289884	-500.248758	341.491447	65.858663	-522.572346	304.577529	139.605142	-641.906209	244.002327	225.980152	-699.597428	272.760168	308.056732	-511.687790	156.707682	272.953987	-531.174630	147.534504	230.332839	-653.801205	677.993298	388.903575	-601.517200	640.589727	399.262216	-570.553600	645.980477	387.109049	-604.854131	555.186353	413.942814	-552.784731	460.841213	432.911882	-589.269453	249.034611	475.189079	-675.927088	226.701541	539.256425	-640.036564	201.031557	524.374395	-659.410470	147.889091	510.926804	-744.352321	104.197579	580.502794	-824.812167	52.906429	558.574086	-600.290243	57.118781	521.032727	-597.927112	57.633898	562.208986	-633.151701	36.015113	621.320584	
755	3.770000	-313.375728	1410.463651	88.759774	-513.473130	1392.898068	95.896530	-421.379014	1392.941557	182.428364	-544.104409	1287.874986	112.706715	-788.832091	1034.031880	100.905024	-476.263296	1136.564112	106.926700	-475.992815	1176.783888	-36.979173	-622.692440	1069.386880	-140.305523	-628.233940	1029.193668	-112.869987	-675.661589	1024.469704	-149.868512	-783.217488	971.442600	-167.088294	-820.941599	1003.029103	-110.207679	-883.780994	744.034552	-70.646035	-935.618422	758.041755	-121.537223	-901.454790	666.471171	-80.140396	-483.504508	1197.549015	278.854774	-548.197323	1080.415949	396.052553	-522.598686	1040.915674	395.701882	-566.052865	1028.081943	438.115075	-581.796007	900.591615	490.703777	-627.323080	873.737100	442.278936	-377.012048	797.454016	369.146889	-386.032621	749.119646	419.314800	-300.779670	788.947166	388.187981	-655.646577	864.603961	239.368774	-838.486741	934.884407	120.038969	-849.126339	896.935590	102.925444	-842.883809	913.602241	158.706586	-641.610854	612.866619	-51.744118	-562.608058	593.843484	-79.018321	-535.930911	634.392564	-82.290137	-530.138099	542.777068	-68.886164	-418.222576	367.766165	44.955377	-504.962638	357.757012	42.673701	-467.394465	342.215276	57.783926	-485.429391	304.309692	132.015633	-599.564777	238.261521	221.996385	-655.644563	264.355192	305.940942	-464.596483	156.094793	264.540720	-485.011199	146.226401	222.558149	-636.083163	676.103993	387.138242	-584.920757	637.516264	398.489348	-553.670236	641.949817	386.559233	-590.596854	552.300127	413.828042	-541.298687	456.299456	434.307999	-583.511786	245.921502	476.629405	-671.588773	225.922320	539.662276	-636.198046	199.246163	525.162777	-656.903236	146.560444	511.392717	-743.698285	105.443163	580.498005	-824.571024	54.642024	557.857356	-599.952504	56.940131	521.242806	-597.727283	57.480588	562.534048	-633.305021	35.879262	621.468548	
756	3.775000	-291.264511	1410.234420	77.838698	-491.337473	1392.241315	88.074650	-397.743763	1392.493750	173.127010	-521.334461	1286.905468	105.573535	-765.696237	1032.699978	95.683467	-453.140031	1135.000669	98.141072	-455.955585	1176.298012	-45.907776	-605.312459	1070.918905	-147.107612	-610.430429	1030.404510	-119.977904	-658.620825	1026.321839	-156.028031	-767.130663	973.836943	-171.371696	-803.464298	1004.752517	-113.354537	-862.253220	745.032781	-73.250159	-915.652363	758.635404	-122.634342	-879.117354	667.499917	-82.830591	-457.234548	1196.426446	270.112686	-518.655716	1076.041058	385.710665	-492.640418	1036.926205	384.172374	-535.390565	1022.459891	426.622943	-547.504801	892.699215	475.727195	-593.424094	866.510117	427.060230	-342.848427	801.522028	345.009443	-348.464245	751.183757	393.424489	-265.775251	795.407673	361.383458	-634.062624	864.667372	237.078176	-815.511636	933.899160	114.973537	-826.085700	895.999503	97.833048	-820.043251	912.659221	153.572638	-620.605166	613.209928	-57.071140	-541.714192	595.782009	-85.766015	-515.875004	636.849751	-89.379736	-508.029030	545.366821	-76.178037	-386.763209	370.543680	35.440819	-473.066720	356.945458	35.996213	-434.400827	342.788239	49.621481	-447.947844	304.012212	124.227049	-556.482010	232.530707	217.615054	-610.739125	255.982693	303.388788	-417.043149	155.808798	255.507642	-438.332400	145.196015	214.162020	-618.622168	674.276641	385.257831	-568.719280	634.413922	397.619402	-537.196750	637.819333	385.977122	-576.925052	549.468425	413.532422	-530.607965	451.843958	435.547154	-578.186267	243.023647	477.886868	-667.509470	225.289447	539.975184	-632.626204	197.641024	525.803313	-654.564242	145.427622	511.761320	-743.019315	106.802969	580.445860	-824.320270	56.619970	557.168777	-599.598742	56.730284	521.440014	-597.526136	57.310688	562.871482	-633.485734	35.751211	621.629997	
757	3.780000	-269.206089	1410.535285	66.868382	-469.211262	1392.178202	80.004815	-374.219981	1392.466882	163.605681	-498.599858	1286.345874	98.117061	-742.364400	1031.651709	90.443900	-429.904521	1134.148438	88.838959	-436.125205	1176.552642	-55.280304	-588.247083	1073.378396	-154.344747	-592.860261	1032.401957	-127.767456	-641.843239	1029.093310	-162.774316	-751.149924	977.033043	-176.284550	-786.138815	1007.155213	-117.201258	-839.746418	746.462906	-76.754421	-894.779611	759.400603	-124.538961	-855.361529	668.924375	-86.452045	-430.934829	1195.919512	260.817535	-488.828980	1072.407428	374.761140	-462.635718	1033.617528	371.868240	-504.355588	1017.649002	414.461822	-513.508374	885.968969	460.098718	-559.974253	860.509017	411.275135	-309.835466	807.199738	320.201254	-311.954991	755.087441	366.710752	-232.068035	803.662900	333.781820	-612.077084	864.905700	234.771765	-792.298980	933.300526	110.044765	-802.830468	895.444281	92.955992	-796.859033	912.159720	148.645869	-599.726887	613.582763	-62.373524	-521.018550	597.562857	-92.426817	-495.969579	639.091791	-96.393022	-486.218475	547.780798	-83.297035	-355.447863	373.250475	25.816862	-441.050470	355.895711	29.234527	-401.292815	343.215648	41.392686	-410.223587	303.739293	116.207235	-512.755732	226.922501	212.766596	-564.994404	247.768612	300.310412	-369.165394	155.944759	245.785014	-391.282788	144.541922	205.078913	-601.375440	672.565051	383.205753	-552.862068	631.360397	396.569108	-521.092908	633.696150	385.279845	-563.767347	546.788270	412.994527	-520.622153	447.626306	436.514554	-573.257587	240.388230	478.902363	-663.647947	224.874273	540.174991	-629.281825	196.286781	526.285844	-652.361339	144.558606	512.041966	-742.288737	108.328996	580.367264	-824.048045	58.903323	556.543017	-599.242469	56.513082	521.639413	-597.318922	57.131245	563.209089	-633.697834	35.659710	621.816606	
